<?xml version="1.0" encoding="utf-8"?>
<!-- Generator: Adobe Illustrator 21.0.0, SVG Export Plug-In . SVG Version: 6.00 Build 0)  -->
<svg version="1.1" id="Layer_1" xmlns="http://www.w3.org/2000/svg" xmlns:xlink="http://www.w3.org/1999/xlink" x="0px" y="0px"
	 viewBox="0 0 47.7 45" style="enable-background:new 0 0 47.7 45;" xml:space="preserve">
<g>
	<path d="M18.8,19.6l-4.7-4.8c-0.6-0.7-1.2-1.3-1.7-1.8C10,10.4,6.7,8.7,2.5,7.7C2.3,7.6,2.1,7.5,2,7.5C1.6,7,1.7,6.3,2.2,5.2
		c0.6-1.1,1.1-1.8,1.4-2.1c0.6-0.6,1.9-0.9,3.9-0.9c2,0.1,3.4,0.4,4.1,0.9l1.1,0.7l2.8,1.8l5.7,6.4c1.1,1,2,1.8,2.7,2.5
		c1.1-1,2.1-1.9,3.1-2.8L36.3,4l4.9-2c1.2-1.2,2.1-1.3,3-0.5c0.6,0.6,0.9,1.4,0.9,2.5c0,1.5-0.6,2.8-1.7,3.9c-1.1,1.1-4.3,3.8-9.5,8
		c-0.9,0.7-2.5,2.1-4.7,4.2c0.3,0.3,0.7,0.8,1.1,1.5l2.6,1.9l2.3,2.6l3.1,3.3l0.5,0.8c3.3,3.5,5.1,5.6,5.4,6.1
		c1.3,2.1,1.3,3.7,0.2,4.9c-0.8,0.8-1.8,0.9-3.2,0.6c-1-0.3-1.6-0.6-1.9-1l-1.4-1.8l-4.4-4.3L33,33.8l-4.5-4.3L24.1,25
		c-4.6,4.8-8.7,9.7-12.2,14.7c-0.6,0.8-1.1,1.5-1.6,1.9c-0.6,0.6-1.3,0.9-2.1,1c-0.2,0-1.1-0.4-2.9-1.3c-1.8-0.2-2.9-0.5-3.2-0.8
		c-0.5-0.5-0.8-1.2-0.7-1.9c0-0.7,0.3-1.3,0.8-1.8c0.6-0.6,1.6-0.8,3-0.6C8.6,31.1,13.2,25.6,18.8,19.6z"/>
</g>
</svg>
